<?xml version="1.0" encoding="UTF-8"?><svg xmlns="http://www.w3.org/2000/svg" width="32" height="32" viewBox="0 0 44 44"><rect width="44" height="44" rx="10" fill="#0a1628"/><g transform="translate(3, 4) scale(0.88)"><path fill="#a6e2fc" d="m38.874,29.56h0c1.282-2.552,2.734-6.579,2.734-10.292,0-3.558-.849-6.311-2.572-9.236-.402-5.77-4.013-10.032-9.148-10.032-5.663,0-8.945,5.004-9.158,9.958-5.659.34-7.412,5.767-9.923,8.038-3.93,3.554-10.807,3.394-10.807,8.543,0,5.3,7.004,6.287,16.035,6.705.152,1.469,3.129,2.641,6.79,2.641,3.433,0,6.264-1.031,6.729-2.371,1.248.623,3.15,1.023,5.285,1.023,3.758,0,6.804-1.235,6.804-2.759,0-.91-1.093-1.715-2.77-2.217Zm-14.269-7.067v-7.21c0-.582.472-1.054,1.054-1.054h1.151c.582,0,1.054.472,1.054,1.054v8.93c-.005,1.451.064,3.108.896,4.024-1.802-.28-4.156-1.75-4.156-5.744Zm4.117-12.309h-4.037c-.2-.431-.323-.924-.323-1.458,0-1.615,1.048-2.924,2.341-2.924s2.341,1.309,2.341,2.924c0,.534-.123,1.027-.323,1.458Zm6.422,12.309c0,3.994-2.354,5.464-4.156,5.744.832-.916.9-2.573.896-4.024v-8.93c0-.582.472-1.054,1.054-1.054h1.151c.582,0,1.054.472,1.054,1.054v7.21Zm-.08-12.309h-4.037c-.2-.431-.323-.924-.323-1.458,0-1.615,1.048-2.924,2.341-2.924s2.341,1.309,2.341,2.924c0,.534-.123,1.027-.323,1.458Z"/></g></svg>
