<svg xmlns="http://www.w3.org/2000/svg" viewBox="0 0 32 32" fill="none">
  <defs>
    <linearGradient id="favBg" x1="0" y1="0" x2="32" y2="32" gradientUnits="userSpaceOnUse">
      <stop offset="0%" stop-color="#0D1117"/>
      <stop offset="100%" stop-color="#0A0F1E"/>
    </linearGradient>
    <linearGradient id="favGrad" x1="4" y1="4" x2="28" y2="28" gradientUnits="userSpaceOnUse">
      <stop offset="0%"   stop-color="#0EA5E9"/>
      <stop offset="100%" stop-color="#6366F1"/>
    </linearGradient>
    <filter id="glow" x="-20%" y="-20%" width="140%" height="140%" color-interpolation-filters="sRGB">
      <feGaussianBlur in="SourceGraphic" stdDeviation="1.2" result="blur"/>
      <feComposite in="blur" in2="SourceGraphic" operator="over"/>
    </filter>
  </defs>
  <rect width="32" height="32" rx="8" fill="url(#favBg)"/>
  <g transform="translate(3.5 4.5) scale(0.164)" filter="url(#glow)">
    <path d="M141.912 107.911C146.592 98.5966 151.891 83.8954 151.891 70.3403C151.891 57.3514 148.793 47.3027 142.502 36.6248C141.035 15.5603 127.853 0.000488281 109.106 0.000488281C88.4326 0.000488281 76.4498 18.2698 75.6756 36.3537C55.0171 37.5943 48.6159 57.4069 39.4523 65.6955C25.1067 78.6693 0 78.0843 0 96.8818C0 116.229 25.5707 119.833 58.5373 121.358C59.0933 126.72 69.9603 131.001 83.3238 131.001C95.8551 131.001 106.19 127.236 107.89 122.344C112.444 124.62 119.391 126.077 127.184 126.077C140.903 126.077 152.023 121.569 152.023 116.007C152.023 112.685 148.035 109.746 141.913 107.913L141.912 107.911ZM89.822 82.1151V55.7955C89.822 53.6698 91.5443 51.9462 93.6713 51.9462H97.8749C100.001 51.9462 101.724 53.6698 101.724 55.7955V88.394C101.707 93.6907 101.96 99.7414 104.995 103.085C98.4158 102.063 89.822 96.6953 89.822 82.1151ZM104.851 37.1795H90.1145C89.3845 35.6073 88.9357 33.8056 88.9357 31.8576C88.9357 25.962 92.7623 21.1823 97.4828 21.1823C102.203 21.1823 106.029 25.962 106.029 31.8576C106.029 33.8056 105.582 35.6073 104.851 37.1795ZM115.181 25.986L124.438 21.0927C125.057 20.7674 125.818 21.0032 126.149 21.6198C126.474 22.2376 126.24 23.0054 125.62 23.3307L116.364 28.2239C116.255 28.2807 116.167 28.3576 116.075 28.4307L125.968 27.4271C126.672 27.3527 127.285 27.8646 127.358 28.5593C127.427 29.2553 126.92 29.8756 126.226 29.9475L126.223 29.95L115.825 31.004C116.013 31.2247 116.245 31.4113 116.536 31.5273L125.498 35.1118C126.149 35.3715 126.463 36.1078 126.204 36.7559C126.006 37.2514 125.531 37.5527 125.029 37.5527C124.874 37.5527 124.714 37.5225 124.56 37.4607L115.599 33.8762C114.005 33.2407 112.959 31.7807 112.869 30.0647C112.777 28.3525 113.663 26.7879 115.181 25.986ZM128.293 82.1151C128.293 96.6965 119.701 102.063 113.122 103.085C116.158 99.7427 116.409 93.6907 116.393 88.394V55.7955C116.393 53.6698 118.116 51.9462 120.242 51.9462H124.445C126.571 51.9462 128.295 53.6698 128.295 55.7955L128.293 82.1151Z" fill="url(#favGrad)"/>
  </g>
</svg>
