<?xml version="1.0" encoding="UTF-8"?><svg id="Layer_1" xmlns="http://www.w3.org/2000/svg" width="140.157" height="35.884" viewBox="0 0 140.157 35.884"><defs><linearGradient id="logoGrad" x1="0" y1="0" x2="42" y2="36" gradientUnits="userSpaceOnUse"><stop offset="0%" stop-color="#0EA5E9"/><stop offset="40%" stop-color="#6366F1"/><stop offset="70%" stop-color="#9333EA"/><stop offset="100%" stop-color="#DB2777"/></linearGradient><style>.cls-1{fill:url(#logoGrad);}.cls-1,.cls-2{stroke-width:0px;}.cls-2{fill:#fff;}</style></defs><path class="cls-2" d="m60.278,9.441h-6.019V3.848h17.737v5.594h-6.054v19.543h-5.665V9.441Z"/><path class="cls-2" d="m82.832,27.674c-1.097,1.027-2.726,1.593-4.213,1.593-4.779,0-7.576-3.292-7.576-8.107v-9.878h5.346v8.921c0,2.408.991,4.178,3.116,4.178,1.309,0,2.62-.637,3.328-1.77v-11.329h5.346v17.702h-5.346v-1.31Z"/><path class="cls-2" d="m89.42,25.514l4.072-2.761c.708,1.274,1.663,2.159,3.257,2.159.743,0,1.38-.177,1.38-.814,0-.672-.495-.885-2.23-1.558l-.92-.354c-3.08-1.204-4.674-3.187-4.674-5.7,0-3.257,2.691-5.487,6.09-5.487,2.266,0,4.249.849,5.594,2.796l-3.045,3.009c-.672-.955-1.451-1.593-2.549-1.593-.708,0-1.275.248-1.275.814,0,.708.567.921,2.337,1.593l.743.283c3.363,1.275,4.745,3.116,4.745,5.736,0,3.612-2.797,5.629-6.408,5.629-3.08,0-5.595-1.097-7.117-3.753Z"/><path class="cls-2" d="m127.978,28.984l-6.515-17.702h5.665l3.683,11.187,3.682-11.187h5.665l-8.921,24.216h-5.665l2.407-6.515Z"/><polygon class="cls-2" points="122.088 28.984 115.15 19.673 121.168 11.282 115.008 11.282 110.274 17.902 110.274 3.848 104.928 3.848 104.928 28.984 110.274 28.984 110.274 21.565 115.787 28.984 122.088 28.984"/><path class="cls-1" d="m38.874,29.56h0c1.282-2.552,2.734-6.579,2.734-10.292,0-3.558-.849-6.311-2.572-9.236-.402-5.77-4.013-10.032-9.148-10.032-5.663,0-8.945,5.004-9.158,9.958-5.659.34-7.412,5.767-9.923,8.038-3.93,3.554-10.807,3.394-10.807,8.543,0,5.3,7.004,6.287,16.035,6.705.152,1.469,3.129,2.641,6.79,2.641,3.433,0,6.264-1.031,6.729-2.371,1.248.623,3.15,1.023,5.285,1.023,3.758,0,6.804-1.235,6.804-2.759,0-.91-1.093-1.715-2.77-2.217Zm-14.269-7.067v-7.21c0-.582.472-1.054,1.054-1.054h1.151c.582,0,1.054.472,1.054,1.054v8.93c-.005,1.451.064,3.108.896,4.024-1.802-.28-4.156-1.75-4.156-5.744Zm4.117-12.309h-4.037c-.2-.431-.323-.924-.323-1.458,0-1.615,1.048-2.924,2.341-2.924s2.341,1.309,2.341,2.924c0,.534-.123,1.027-.323,1.458Zm6.422,12.309c0,3.994-2.354,5.464-4.156,5.744.832-.916.9-2.573.896-4.024v-8.93c0-.582.472-1.054,1.054-1.054h1.151c.582,0,1.054.472,1.054,1.054v7.21Zm-.08-12.309h-4.037c-.2-.431-.323-.924-.323-1.458,0-1.615,1.048-2.924,2.341-2.924s2.341,1.309,2.341,2.924c0,.534-.123,1.027-.323,1.458Z"/></svg>
